# xmcd CD database file
#
# Track frame offsets:
#	150
#	11874
#	23396
#	33171
#	46224
#	57887
#	69656
#	80688
#	91334
#	101969
#	113814
#	125482
#	135463
#	148218
#	158707
#	171718
#	183053
#	196909
#	207236
#	218265
#	227150
#	238505
#	250094
#	258815
#	268211
#	279495
#	289040
#	299379
#	310650
#	322268
#
# Disc length: 4466 seconds
#
# Revision: 0
# Processed by: cddbd v1.5.1PL2 Copyright (c) Steve Scherf et al.
# Submitted via: CDex 1.51
#
DISCID=b611701e
DTITLE=Patsy Cline - The Essential Patsy Cline Collection
DYEAR=2005
DGENRE=Country
TTITLE0=Walkin' After Midnight
TTITLE1=I've Loved and Lost Again
TTITLE2=I'm Blue Again
TTITLE3=If I Could See the World Through the Eyes of a Child
TTITLE4=Lonely Street
TTITLE5=Today, Tomorrow and Forever
TTITLE6=There He Goes
TTITLE7=Got a Lot of Rhythm in My Soul
TTITLE8=I Can See an Angel Walkin'
TTITLE9=If I Could Only Stay Asleep
TTITLE10=Never No More
TTITLE11=Turn the Cards Slowly
TTITLE12=Yes, I Understand
TTITLE13=Lovesick Blues
TTITLE14=Life's Railway to Heaven
TTITLE15=Crazy Dreams
TTITLE16=A Church a Courtroom and Then Goodbye
TTITLE17=Walkin' Dreams
TTITLE18=I Cried All the Way to the Altar
TTITLE19=Try Again
TTITLE20=That Wonderful Someone
TTITLE21=In Care of the Blues
TTITLE22=Ain't No Wheels On this Ship
TTITLE23=Love Me, Love Me Honey Do
TTITLE24=Just Out of Reach
TTITLE25=I'm Movin' Along
TTITLE26=Too Many Secrets
TTITLE27=Hungry For Love
TTITLE28=Let the Teardrops Fall
TTITLE29=Just a Closer Walk With Thee
EXTD=YEAR: 2005
EXTT0=
EXTT1=
EXTT2=
EXTT3=
EXTT4=
EXTT5=
EXTT6=
EXTT7=
EXTT8=
EXTT9=
EXTT10=
EXTT11=
EXTT12=
EXTT13=
EXTT14=
EXTT15=
EXTT16=
EXTT17=
EXTT18=
EXTT19=
EXTT20=
EXTT21=
EXTT22=
EXTT23=
EXTT24=
EXTT25=
EXTT26=
EXTT27=
EXTT28=
EXTT29=
PLAYORDER=
